<?xml version="1.0" standalone="no"?><svg xmlns="http://www.w3.org/2000/svg" viewBox="0 0 1440 320"><path fill="#0099ff" fill-opacity="1" d="M0,128L40,117.3C80,107,160,85,240,90.7C320,96,400,128,480,165.3C560,203,640,245,720,256C800,267,880,245,960,224C1040,203,1120,181,1200,197.3C1280,213,1360,267,1400,293.3L1440,320L1440,320L1400,320C1360,320,1280,320,1200,320C1120,320,1040,320,960,320C880,320,800,320,720,320C640,320,560,320,480,320C400,320,320,320,240,320C160,320,80,320,40,320L0,320Z"></path></svg>