<?xml version="1.0" standalone="no"?><svg xmlns="http://www.w3.org/2000/svg" viewBox="0 0 1440 320"><path fill="#437eeb" fill-opacity="1" d="M0,256L30,224C60,192,120,128,180,122.7C240,117,300,171,360,181.3C420,192,480,160,540,176C600,192,660,256,720,288C780,320,840,320,900,293.3C960,267,1020,213,1080,197.3C1140,181,1200,203,1260,197.3C1320,192,1380,160,1410,144L1440,128L1440,0L1410,0C1380,0,1320,0,1260,0C1200,0,1140,0,1080,0C1020,0,960,0,900,0C840,0,780,0,720,0C660,0,600,0,540,0C480,0,420,0,360,0C300,0,240,0,180,0C120,0,60,0,30,0L0,0Z"></path></svg>