<?xml version="1.0" standalone="no"?><svg xmlns="http://www.w3.org/2000/svg" viewBox="0 0 1440 320"><path fill="#fff" fill-opacity="1" d="M0,128L30,149.3C60,171,120,213,180,197.3C240,181,300,107,360,64C420,21,480,11,540,58.7C600,107,660,213,720,234.7C780,256,840,192,900,144C960,96,1020,64,1080,85.3C1140,107,1200,181,1260,229.3C1320,277,1380,299,1410,309.3L1440,320L1440,320L1410,320C1380,320,1320,320,1260,320C1200,320,1140,320,1080,320C1020,320,960,320,900,320C840,320,780,320,720,320C660,320,600,320,540,320C480,320,420,320,360,320C300,320,240,320,180,320C120,320,60,320,30,320L0,320Z"></path></svg>